<?xml version="1.0" encoding="utf-8"?>
<!-- Generator: Adobe Illustrator 25.3.0, SVG Export Plug-In . SVG Version: 6.00 Build 0)  -->
<svg version="1.1" xmlns="http://www.w3.org/2000/svg" xmlns:xlink="http://www.w3.org/1999/xlink" x="0px" y="0px" viewBox="0 0 512 512" style="enable-background:new 0 0 512 512;" xml:space="preserve">
	<g id="Layer_3">
		<path class="st1" d="M126.18,421.06l10.79-10.79h31.8l10.79,10.79v67.3l-10.79,10.79h-31.8l-10.79-10.79V421.06z M168.35,487.94
					v-66.45l-28.82-2.7l-4.83,12.35l2.7,56.79H168.35z" />
		<path class="st1" d="M200.67,499.15v-88.88h6.67l17.75,26.69h8.94l17.75-26.69h6.67v88.88h-8.94v-73.26l-16.47,25.27h-7.1
					l-16.33-25.27v73.26H200.67z" />
		<path class="st1" d="M279.57,421.06l10.79-10.79h31.8l10.79,10.79v78.09h-8.94v-35.49h-35.49v35.49h-8.94V421.06z
					 M324.43,454.71l-2.7-33.22l-26.98-2.7l-6.25,6.25v29.67H324.43z" />
		<path class="st1" d="M354.06,419.22v-8.94h26.69v8.94h-8.94v70.99h8.94v8.94h-26.69v-8.94h8.94v-70.99H354.06z" />
		<path class="st1" d="M401.87,499.15v-88.88h42.59l10.79,10.79v31.8l-10.79,10.79h-17.61l30.1,30.95l-6.25,6.25l-39.9-39.04
					v37.34H401.87z M444.04,452.44v-30.95l-33.22-2.7v36.35L444.04,452.44z" />
	</g>
	<g id="Layer_4">
		<g>
			<path class="st1" d="M162.31,227.67l41.63-42.59h12.79l-41.63,42.59l41.63,42.59h-12.79L162.31,227.67z" />
			<path class="st1" d="M231.57,266.72l40.82-81.63h6.39v4.35l-39.05,78.64l-3.4,3.4L231.57,266.72z" />
			<path class="st1" d="M300,195.43l10.34-10.34h30.48l10.34,10.34v64.49l-10.34,10.34h-30.48L300,259.92V195.43z M340.41,259.51
					v-63.68l-27.62-2.58l-4.63,11.84l2.59,54.42H340.41z" />
			<path class="st1" d="M408.03,227.67l-41.63-42.59h12.79l41.63,42.59l-41.63,42.59H366.4L408.03,227.67z" />
		</g>
		<path class="st1" d="M414.65,361.88H168.48l-52.35-52.35V146.77l52.35-52.35h246.17L467,146.77v162.75L414.65,361.88z
			 M172.8,351.44h237.52l46.24-46.24V151.1l-46.24-46.24H172.8l-46.24,46.24V305.2L172.8,351.44z" />
	</g>
</svg>